<svg width="86" height="33" viewBox="0 0 86 33" fill="none" xmlns="http://www.w3.org/2000/svg">
<path d="M25.5642 15.3019C24.6254 13.7943 22.576 12.0897 18.2066 11L19.17 15.9268C15.6175 16.8317 11.7378 18.7432 7.62086 22.1396L0 16.2731C0 16.2731 2.24672 24.5756 0 32.156C3.25147 29.3972 5.99948 27.2412 7.83342 25.8615C17.376 32.7454 26.8707 38.425 42 24.0987C42 24.0987 35.6944 15.9154 25.5642 15.3019Z" fill="#241F20"/>
<path d="M49.003 15.872C48.8343 17.2367 48.428 18.402 47.784 19.368C47.14 20.3493 46.3273 21.093 45.346 21.599C44.3647 22.1203 43.276 22.404 42.08 22.45L42.379 20.058C43.0843 20.012 43.7283 19.8357 44.311 19.529C44.909 19.2223 45.3997 18.7623 45.783 18.149C46.1817 17.5357 46.4347 16.7537 46.542 15.803L48.198 2.302H50.659L49.003 15.872ZM57.628 15.872C57.4593 17.2367 57.053 18.402 56.409 19.368C55.765 20.3493 54.9523 21.093 53.971 21.599C52.9897 22.1203 51.901 22.404 50.705 22.45L51.004 20.058C51.7093 20.012 52.3533 19.8357 52.936 19.529C53.534 19.2223 54.0247 18.7623 54.408 18.149C54.8067 17.5357 55.0597 16.7537 55.167 15.803L56.823 2.302H59.284L57.628 15.872ZM62.619 2.394H65.471L68.277 14.653L67.886 14.492L72.164 6.12L72.923 9.455L67.15 19.782L62.619 2.394ZM70.715 2.394H73.153L76.419 14.446L75.936 14.354L81.456 2.394H84.078L75.407 19.736L70.715 2.394Z" fill="#241F20"/>
</svg>
